<?xml version="1.0" encoding="UTF-8" standalone="no"?>
<!DOCTYPE svg PUBLIC "-//W3C//DTD SVG 1.1//EN" "http://www.w3.org/Graphics/SVG/1.1/DTD/svg11.dtd">
<!-- Generiert durch Microsoft Visio, SVG Export ford.svg Zeichenblatt-1 -->
<svg xmlns="http://www.w3.org/2000/svg" xmlns:xlink="http://www.w3.org/1999/xlink" xmlns:ev="http://www.w3.org/2001/xml-events"
		xmlns:v="http://schemas.microsoft.com/visio/2003/SVGExtensions/" width="0.94551in" height="0.833587in"
		viewBox="0 0 68.0767 60.0183" xml:space="preserve" color-interpolation-filters="sRGB" class="st3">
	<v:documentProperties v:langID="1031" v:metric="true" v:viewMarkup="false"/>

	<style type="text/css">
	<![CDATA[
		.st1 {stroke:url(#grad0-3);stroke-linecap:round;stroke-linejoin:round;stroke-width:6}
		.st2 {stroke:url(#grad0-3);stroke-linecap:round;stroke-linejoin:round;stroke-width:4.5}
		.st3 {fill:none;fill-rule:evenodd;font-size:12px;overflow:visible;stroke-linecap:square;stroke-miterlimit:3}
	]]>
	</style>

	<defs id="Patterns_And_Gradients">
		<linearGradient id="grad0-3" x1="0" y1="0" x2="1" y2="0" gradientTransform="rotate(90 0.5 0.5)">
			<stop offset="0" stop-color="#0070c0" stop-opacity="1"/>
			<stop offset="0.78" stop-color="#b7dde8" stop-opacity="1"/>
			<stop offset="1" stop-color="#dbeef3" stop-opacity="1"/>
		</linearGradient>
	</defs>
	<g v:mID="0" v:index="1" v:groupContext="foregroundPage">
		<title>Zeichenblatt-1</title>
		<v:pageProperties v:drawingScale="0.0393701" v:pageScale="0.0393701" v:drawingUnits="24" v:shadowOffsetX="8.50394"
				v:shadowOffsetY="-8.50394"/>
		<g id="shape1-1" v:mID="1" v:groupContext="shape" transform="translate(37.6866,-27.8588) rotate(38.8967)">
			<title>Tabelle.1</title>
			<path d="M0 46.99 C9.91 44.66 9.92 38.12 12.18 36.29 C16.15 33.05 27.08 44.38 35.38 51.53 C40.28 55.75 44.26 58.51 49.62
						 59.64 C52.61 60.28 56.04 60.4 57.97 58.47 C59.55 56.89 60.12 53.93 61.43 52.38 C62.84 50.72 65.1 50.69 65.56
						 46.99" class="st1"/>
		</g>
		<g id="shape8-7" v:mID="8" v:groupContext="shape" transform="translate(15.4806,-1.55359) rotate(-26.8911)">
			<title>Tabelle.8</title>
			<path d="M0 57.41 C8.32 59.09 15.92 62.36 22.25 57.41" class="st2"/>
		</g>
		<g id="shape9-12" v:mID="9" v:groupContext="shape" transform="translate(-0.389694,3.41636) rotate(-41.5886)">
			<title>Tabelle.9</title>
			<path d="M0 58.76 C0.86 58.07 1.23 58.61 1.61 59.02 C5.56 63.26 10.47 52.51 15.16 58.76" class="st2"/>
		</g>
		<g id="shape10-17" v:mID="10" v:groupContext="shape" transform="translate(13.5701,12.3383) rotate(-52.6657)">
			<title>Tabelle.10</title>
			<path d="M0 60.02 C0.52 60.07 0.96 59.65 1.38 59.37 C3.74 57.76 5.54 60.3 7.48 60.02" class="st2"/>
		</g>
	</g>
</svg>
